<svg id="Group_146" data-name="Group 146" xmlns="http://www.w3.org/2000/svg" width="15.198" height="14.057" viewBox="0 0 15.198 14.057">
  <path id="Path_34" data-name="Path 34" d="M16.6,7.46a.673.673,0,0,1,1.269,0L19,10.65a.673.673,0,0,0,.391.4l3.13,1.215a.673.673,0,0,1,0,1.255l-3.13,1.215a.673.673,0,0,0-.391.4l-1.125,3.19a.673.673,0,0,1-1.269,0l-1.125-3.19a.673.673,0,0,0-.391-.4l-3.13-1.215a.673.673,0,0,1,0-1.255l3.13-1.215a.673.673,0,0,0,.391-.4Z" transform="translate(-7.751 -4.723)"/>
  <path id="Path_35" data-name="Path 35" d="M9.193.541a.336.336,0,0,1,.655-.1l.439,1.276a.336.336,0,0,0,.277.224l1.391.173a.336.336,0,0,1,.1.639l-1.27.594a.336.336,0,0,0-.194.3l-.024,1.349a.336.336,0,0,1-.655.1L9.474,3.819A.336.336,0,0,0,9.2,3.594L7.806,3.421a.336.336,0,0,1-.1-.639l1.27-.594a.336.336,0,0,0,.194-.3Z" transform="translate(-5.086 -0.21)"/>
  <path id="Path_36" data-name="Path 36" d="M2.433,12.284a.336.336,0,0,1,.632.136l.075,1.108a.336.336,0,0,0,.132.245l.916.7a.336.336,0,0,1-.128.6l-1.123.259a.337.337,0,0,0-.221.169l-.525.978a.336.336,0,0,1-.632-.136l-.075-1.108a.336.336,0,0,0-.132-.245l-.916-.7a.336.336,0,0,1,.128-.6l1.123-.259a.337.337,0,0,0,.221-.169Z" transform="translate(-0.303 -8.104)"/>
</svg>
